<?xml version="1.0" standalone="no"?> <!DOCTYPE svg PUBLIC "-//W3C//DTD SVG 20010904//EN" "http://www.w3.org/TR/2001/REC-SVG-20010904/DTD/svg10.dtd"> <svg version="1.0" xmlns="http://www.w3.org/2000/svg" width="600" height="600" viewBox="0 0 600 600" preserveAspectRatio="xMidYMid meet"> <g transform="translate(0.000000,600.000000) scale(0.100000,-0.100000)" fill="#49a25e" stroke="none"> <path d="M4043 5370 c-12 -5 -26 -18 -32 -28 -6 -11 -27 -29 -47 -41 -31 -19 -35 -25 -29 -49 5 -25 -2 -38 -51 -93 -32 -35 -60 -66 -64 -69 -4 -3 -45 -55 -91 -116 -46 -60 -94 -123 -107 -140 -54 -68 -153 -207 -166 -233 -8 -15 -40 -95 -71 -177 -60 -160 -75 -241 -75 -419 0 -106 10 -149 53 -219 50 -83 97 -134 182 -197 89 -68 130 -91 195 -110 25 -7 49 -16 53 -19 9 -8 -18 -145 -59 -300 -25 -93 -37 -133 -164 -530 -72 -224 -203 -560 -263 -670 -48 -90 -66 -123 -143 -260 -32 -58 -74 -134 -94 -170 -48 -88 -62 -89 -188 -14 -53 31 -132 86 -175 120 -43 35 -121 89 -173 119 -73 43 -118 80 -204 168 -138 141 -146 153 -268 380 -97 181 -102 194 -141 350 -39 159 -85 354 -101 432 -31 153 -52 238 -69 289 -22 62 -26 96 -13 96 20 0 183 -65 242 -96 88 -46 282 -204 330 -268 47 -62 79 -145 115 -292 23 -96 26 -129 26 -279 0 -162 -2 -175 -32 -270 -78 -253 -78 -275 2 -275 83 0 128 68 184 280 27 103 27 109 22 300 -5 171 -10 209 -36 312 -33 130 -89 257 -148 333 -21 28 -96 94 -168 148 -200 151 -331 206 -505 212 -47 1 -94 6 -105 9 -39 13 -64 -30 -80 -139 -8 -54 -15 -110 -15 -125 0 -15 -18 -62 -39 -106 -21 -43 -67 -173 -101 -289 -34 -115 -68 -231 -76 -256 -24 -76 -53 -267 -60 -394 -7 -118 -6 -121 21 -175 53 -105 97 -161 175 -220 25 -19 51 -40 57 -46 29 -28 87 -56 147 -74 52 -15 78 -17 132 -10 90 11 141 47 167 115 29 76 30 90 12 108 -24 24 -58 21 -102 -9 -35 -24 -44 -26 -111 -20 -86 7 -130 24 -191 74 -67 54 -93 82 -125 132 -29 44 -29 45 -27 190 0 80 4 165 7 190 7 61 51 269 75 354 10 38 26 108 34 155 17 89 29 121 41 109 3 -4 17 -58 29 -120 40 -197 113 -480 142 -553 44 -111 205 -399 276 -495 48 -64 202 -221 267 -272 25 -19 86 -57 135 -83 50 -27 127 -73 172 -102 88 -58 209 -114 288 -134 28 -7 51 -14 53 -15 18 -11 -187 -271 -321 -405 -52 -54 -148 -141 -214 -195 -65 -55 -152 -132 -193 -171 -41 -40 -82 -73 -92 -73 -20 0 -30 -13 -23 -32 8 -21 59 -48 90 -48 28 0 85 28 85 42 0 4 5 8 12 8 19 0 274 156 358 219 96 73 207 178 278 266 31 39 73 88 93 111 75 84 203 293 371 609 184 345 210 409 373 935 133 429 182 616 246 925 145 713 160 831 159 1278 0 152 2 277 6 277 10 0 99 -54 153 -93 71 -53 223 -207 276 -282 83 -115 112 -236 100 -413 -6 -80 -14 -123 -34 -172 -38 -93 -182 -303 -265 -386 -213 -215 -256 -262 -250 -278 29 -76 287 66 436 241 64 75 205 304 241 392 l39 95 -4 180 c-4 161 -8 190 -31 261 -32 98 -124 241 -198 310 -174 161 -237 206 -404 286 -76 37 -126 66 -130 78 -4 14 -47 44 -58 40 -1 0 -12 -4 -24 -9z m-18 -325 c-12 -292 -40 -594 -75 -815 -18 -111 -95 -495 -105 -527 -3 -9 -11 -9 -32 2 -15 8 -34 15 -41 15 -24 0 -207 94 -223 115 -10 11 -29 34 -43 50 -51 58 -68 108 -77 231 -8 102 -7 128 11 210 28 130 42 162 138 304 96 142 122 177 207 275 33 39 98 121 144 183 59 78 87 109 93 100 4 -7 6 -71 3 -143z"/> </g> </svg>